<?xml version="1.0" standalone="no"?><!DOCTYPE svg PUBLIC "-//W3C//DTD SVG 1.1//EN" "http://www.w3.org/Graphics/SVG/1.1/DTD/svg11.dtd"><svg t="1644663867759" class="icon" viewBox="0 0 1024 1024" version="1.1" xmlns="http://www.w3.org/2000/svg" p-id="3765" width="100" height="100" xmlns:xlink="http://www.w3.org/1999/xlink"><defs><style type="text/css"></style></defs><path d="M864 320H160v-64a96 96 0 0 1 96-96h512a96 96 0 0 1 96 96v64z m0 80v368a96 96 0 0 1-96 96H256a96 96 0 0 1-96-96V400h704z m-608-128a32 32 0 1 0 0-64 32 32 0 0 0 0 64z m112 0a32 32 0 1 0 0-64 32 32 0 0 0 0 64z m112 0a32 32 0 1 0 0-64 32 32 0 0 0 0 64z m-101.248 386l14.992 37.504c4.16 7.504 5.008 13.328 2.512 17.488-2.512 4.16-8.336 6.256-17.504 6.256h-11.248v12.496h103.744v-12.48c-14.992 0-25.824-9.6-32.496-28.768L374.992 528H327.52l3.744 8.752-54.992 152.496c-6.672 20.832-17.088 30.832-31.248 30H240v12.496h85.008v-12.48h-3.76c-14.16 0-22.912-1.68-26.24-5.008-3.344-2.512-2.928-8.752 1.248-18.752l12.48-37.504h70.016z m-6.24-17.504h-57.52l27.52-74.992 29.984 74.992z m182.48 7.504l15.008 2.496h21.248c51.68-1.664 78.336-21.664 80-60-2.496-40.832-31.664-61.664-87.504-62.496-19.168 0-36.24 0.416-51.248 1.248-21.664 0.832-38.752 2.08-51.248 3.744v12.512h6.24c16.672-0.832 24.176 5.408 22.512 18.752v136.24c1.664 13.344-5.84 19.584-22.496 18.752h-5.008v12.496h108.752v-12.48h-8.752c-20 1.648-29.168-6.256-27.488-23.76V648z m0-103.744a52.176 52.176 0 0 1 22.512-2.512c30 0.832 45.408 16.256 46.24 46.256-0.832 31.68-16.24 47.92-46.24 48.752-8.336 0-15.84-0.832-22.512-2.496v-90z m132.512 1.248h3.744c16.672-0.832 24.592 7.072 23.744 23.744v127.504c0.848 14.992-7.072 22.496-23.744 22.496h-3.744v12.496h101.248v-12.48h-5.008c-17.488 0.816-25.824-7.104-24.992-23.76v-126.24c0-15.84 8.32-23.76 24.992-23.76h5.008v-12.512h-101.248v12.512z" p-id="3766" fill="#666666"></path></svg>